<svg width="159" height="40" viewBox="0 0 159 40" fill="none" xmlns="http://www.w3.org/2000/svg">
<path d="M15.56 31.48C17.16 31.48 18.7067 31.2667 20.2 30.84L22.44 34.6H28.24L24.68 28.72C26.6533 27.36 28.2267 25.5867 29.4 23.4C30.5733 21.2133 31.16 18.7733 31.16 16.08C31.16 13.8667 30.76 11.8267 29.96 9.96C29.1867 8.09333 28.0933 6.48 26.68 5.12C25.2667 3.73333 23.6133 2.65333 21.72 1.88C19.8267 1.10667 17.7733 0.719999 15.56 0.719999C13.3467 0.719999 11.2933 1.10667 9.4 1.88C7.50667 2.65333 5.85333 3.73333 4.44 5.12C3.05333 6.48 1.96 8.09333 1.16 9.96C0.386667 11.8267 2.98023e-08 13.8667 2.98023e-08 16.08C2.98023e-08 18.2667 0.386667 20.3067 1.16 22.2C1.96 24.0667 3.06667 25.6933 4.48 27.08C5.89333 28.4667 7.54667 29.5467 9.44 30.32C11.3333 31.0933 13.3733 31.48 15.56 31.48ZM15.56 26.52C13.64 26.52 11.9067 26.0667 10.36 25.16C8.84 24.2533 7.64 23.0133 6.76 21.44C5.88 19.8667 5.44 18.08 5.44 16.08C5.44 14.08 5.88 12.3067 6.76 10.76C7.64 9.18667 8.84 7.94667 10.36 7.04C11.9067 6.13333 13.64 5.68 15.56 5.68C17.5067 5.68 19.24 6.13333 20.76 7.04C22.28 7.94667 23.48 9.18667 24.36 10.76C25.24 12.3067 25.68 14.08 25.68 16.08C25.68 17.8133 25.3467 19.3867 24.68 20.8C24.04 22.1867 23.1467 23.3467 22 24.28L18.84 19.08H13.16L17.52 26.36C16.88 26.4667 16.2267 26.52 15.56 26.52ZM43.3172 31.48C44.6772 31.48 45.8772 31.2267 46.9172 30.72C47.9839 30.1867 48.8239 29.4133 49.4372 28.4V31H54.3972V9.24H49.1572V22C49.1572 23.44 48.7439 24.5867 47.9172 25.44C47.0905 26.2667 46.0372 26.68 44.7572 26.68C43.4505 26.68 42.3839 26.2667 41.5572 25.44C40.7572 24.6133 40.3572 23.5067 40.3572 22.12V9.24H35.1172V22.56C35.1172 25.2267 35.8372 27.3867 37.2772 29.04C38.7439 30.6667 40.7572 31.48 43.3172 31.48ZM59.2681 6.8H64.5081V1.2H59.2681V6.8ZM59.2681 31H64.5081V9.24H59.2681V31ZM79.8263 31.48C81.3996 31.48 82.8529 31.2133 84.1863 30.68C85.5196 30.12 86.6663 29.36 87.6263 28.4C88.5863 27.4133 89.2796 26.3067 89.7063 25.08L85.1063 23C84.6796 24.1467 83.9996 25.0533 83.0663 25.72C82.1596 26.36 81.0796 26.68 79.8263 26.68C78.6796 26.68 77.6529 26.4 76.7463 25.84C75.8663 25.28 75.1729 24.5067 74.6663 23.52C74.1596 22.5067 73.9063 21.3733 73.9063 20.12C73.9063 18.84 74.1596 17.7067 74.6663 16.72C75.1729 15.7333 75.8663 14.96 76.7463 14.4C77.6529 13.84 78.6796 13.56 79.8263 13.56C81.0796 13.56 82.1596 13.8933 83.0663 14.56C83.9996 15.2267 84.6796 16.1067 85.1063 17.2L89.7063 15.2C89.2529 13.92 88.5463 12.8 87.5863 11.84C86.6263 10.8533 85.4796 10.0933 84.1463 9.56C82.8129 9.02667 81.3729 8.76 79.8263 8.76C77.6663 8.76 75.7196 9.25333 73.9863 10.24C72.2796 11.2267 70.9329 12.5733 69.9463 14.28C68.9596 15.9867 68.4663 17.92 68.4663 20.08C68.4663 22.24 68.9596 24.1867 69.9463 25.92C70.9329 27.6267 72.2796 28.9867 73.9863 30C75.7196 30.9867 77.6663 31.48 79.8263 31.48ZM93.6822 31H98.9222V24.36L101.722 21.32L107.842 31H113.842L105.642 18L113.682 9.24H107.162L98.9222 17.88V1.08H93.6822V31ZM116.768 31H122.008V1.2H116.768V31ZM129.486 39.84C131.54 39.84 133.246 39.2533 134.606 38.08C135.993 36.9333 137.1 35.3067 137.926 33.2L147.406 9.24H141.726L136.126 24.24L130.486 9.24H124.846L133.446 31L132.966 32.16C132.54 33.0667 132.046 33.8 131.486 34.36C130.953 34.92 130.086 35.2 128.886 35.2C128.46 35.2 128.006 35.16 127.526 35.08C127.046 35.0267 126.62 34.9467 126.246 34.84V39.24C126.7 39.4533 127.206 39.6 127.766 39.68C128.326 39.7867 128.9 39.84 129.486 39.84Z" fill="white"/>
<path d="M152.764 31H158.044V25.4H152.764V31Z" fill="#B8E4DA"/>
</svg>
